<svg width="49" height="48" viewBox="0 0 49 48" fill="none" xmlns="http://www.w3.org/2000/svg">
<mask id="mask0_1_49" style="mask-type:alpha" maskUnits="userSpaceOnUse" x="0" y="0" width="49" height="48">
<rect x="1" y="0.5" width="47" height="47" fill="#D9D9D9" stroke="#419300"/>
</mask>
<g mask="url(#mask0_1_49)">
<path d="M7.55 23.4H3.56592L18.0493 2.91697L32.4859 23.4H28.55H27.5891L28.1405 24.1869L37.1891 37.1H21.4H20.9V37.6V44.5H15.25V37.6V37.1H14.75H-1.04197L7.96018 24.1859L8.50803 23.4H7.55ZM37.7102 25.6141L26.41 9.40076L30.9519 2.91867L45.4341 23.4H41.55H40.5948L41.1391 24.1849L50.0948 37.1H40.9101L33.411 26.4H37.3H38.2579L37.7102 25.6141ZM28.15 44.5V40.1H33.8V44.5H28.15Z" fill="#519240" stroke="#714B67"/>
</g>
</svg>
